<svg xmlns="http://www.w3.org/2000/svg" viewBox="0 0 32 32" fill="none">
  <rect width="32" height="32" rx="8" fill="#6366f1"/>
  <path d="M16 7c-1.1 0-2 .9-2 2v7c0 1.1.9 2 2 2s2-.9 2-2V9c0-1.1-.9-2-2-2z" fill="white"/>
  <path d="M12 11c-1.1 0-2 .9-2 2v5c0 1.1.9 2 2 2s2-.9 2-2v-5c0-1.1-.9-2-2-2z" fill="white" opacity="0.8"/>
  <path d="M20 11c-1.1 0-2 .9-2 2v5c0 1.1.9 2 2 2s2-.9 2-2v-5c0-1.1-.9-2-2-2z" fill="white" opacity="0.8"/>
  <path d="M8 15c-1.1 0-2 .9-2 2v2c0 1.1.9 2 2 2s2-.9 2-2v-2c0-1.1-.9-2-2-2z" fill="white" opacity="0.6"/>
  <path d="M24 15c-1.1 0-2 .9-2 2v2c0 1.1.9 2 2 2s2-.9 2-2v-2c0-1.1-.9-2-2-2z" fill="white" opacity="0.6"/>
  <rect x="6" y="21" width="20" height="4" rx="2" fill="white" opacity="0.4"/>
</svg>